<svg width="225" height="225" viewBox="0 0 225 225" fill="none" xmlns="http://www.w3.org/2000/svg">
<path d="M109.238 58.1617L87.6933 76.2401L178.085 183.965C179.284 185.394 181.001 186.288 182.859 186.45C184.716 186.613 186.563 186.03 187.991 184.832L198.764 175.793C200.192 174.594 201.086 172.877 201.249 171.019C201.411 169.161 200.829 167.315 199.63 165.887L109.238 58.1617Z" fill="#D8D9DC"/>
<path d="M58.0845 101.109L133.495 37.8282C134.202 37.2345 134.786 36.5073 135.212 35.6881C135.638 34.8689 135.899 33.9738 135.979 33.0538C136.06 32.1338 135.958 31.207 135.68 30.3263C135.402 29.4457 134.953 28.6284 134.36 27.9211L116.282 6.3844C115.689 5.67703 114.961 5.09353 114.142 4.66723C113.323 4.24093 112.428 3.98018 111.508 3.89987C110.588 3.81956 109.661 3.92126 108.78 4.19917C107.9 4.47708 107.082 4.92575 106.375 5.51956L54.2103 49.2891C53.1056 50.2163 52.3127 51.4608 51.9392 52.8539L42.3486 88.6289C42.0581 89.7192 42.0342 90.8633 42.2789 91.9647C42.5237 93.0661 43.0299 94.0925 43.7548 94.9571L48.1845 100.23C49.3813 101.659 51.0963 102.554 52.9526 102.719C54.809 102.884 56.6548 102.305 58.0845 101.109Z" fill="#D8D9DC"/>
<path d="M94.6266 221.126L135.598 180.155L85.8797 130.437L19.1813 197.135" fill="#FEDAAA"/>
<path d="M122.034 177.293C128.137 179.135 134.584 179.533 140.867 178.455C147.15 177.378 153.097 174.854 158.237 171.084L180.344 155.299L148.148 120.361L105.77 90.6609L96.025 100.406C89.8336 106.459 85.6911 114.297 84.1781 122.821C82.665 131.346 83.8572 140.131 87.5875 147.945" fill="#FEDAAA"/>
<path d="M187.801 118.005C191.919 113.886 198.597 113.886 202.716 118.005C206.835 122.123 206.835 128.801 202.716 132.92L177.857 157.779C173.738 161.898 167.06 161.898 162.941 157.779C158.822 153.66 158.822 146.983 162.941 142.864L187.801 118.005Z" fill="#FEDAAA"/>
<path d="M177.857 98.1251C181.976 94.0063 188.654 94.0063 192.773 98.1251C196.892 102.244 196.892 108.922 192.773 113.041L167.913 137.9C163.795 142.019 157.117 142.019 152.998 137.9C148.879 133.781 148.879 127.103 152.998 122.984L177.857 98.1251Z" fill="#FEDAAA"/>
<path d="M167.912 78.2369C172.031 74.1181 178.709 74.1181 182.827 78.2369C186.946 82.3557 186.946 89.0336 182.827 93.1524L152.996 122.983C148.878 127.102 142.2 127.102 138.081 122.983C133.962 118.865 133.962 112.187 138.081 108.068L167.912 78.2369Z" fill="#FEDAAA"/>
<path d="M148.019 68.2845C152.138 64.1657 158.816 64.1657 162.935 68.2845C167.054 72.4033 167.054 79.0812 162.935 83.2L138.076 108.059C133.957 112.178 127.279 112.178 123.16 108.059C119.041 103.94 119.041 97.2625 123.16 93.1437L148.019 68.2845Z" fill="#FEDAAA"/>
<path d="M100.794 95.625L105.765 90.6539C108.402 88.0176 111.978 86.5366 115.707 86.5366C119.436 86.5366 123.012 88.0176 125.649 90.6539L130.62 95.625L138.08 103.085C140.002 105.074 141.065 107.739 141.041 110.504C141.017 113.269 139.907 115.915 137.952 117.87C135.996 119.825 133.351 120.935 130.586 120.959C127.82 120.983 125.156 119.92 123.167 117.998L115.707 110.538" fill="#FEDAAA"/>
<path d="M16.706 194.667L80.0717 131.231C79.9388 125.054 81.0661 118.913 83.3847 113.186C85.7033 107.458 89.1647 102.263 93.5576 97.9172L97.7764 93.6985L87.2717 81.2039L60.3701 103.774C58.4799 105.369 56.0862 106.243 53.6131 106.242C53.3037 106.242 52.9873 106.242 52.6779 106.2C51.297 106.086 49.9527 105.698 48.7236 105.058C47.4946 104.418 46.4055 103.539 45.5201 102.473L41.0974 97.2C40.0067 95.9008 39.2454 94.3577 38.8782 92.7016C38.511 91.0455 38.5487 89.3252 38.9881 87.6867L48.5154 51.9469C49.0726 49.856 50.2639 47.9892 51.9256 46.6031L104.112 2.81252C106.256 1.0168 109.026 0.146501 111.812 0.39308C114.599 0.639659 117.173 1.98291 118.969 4.12737L137.053 25.6711C138.85 27.8139 139.723 30.5829 139.479 33.369C139.235 36.1551 137.895 38.7303 135.752 40.5281L114.229 58.5914L131.808 79.5446L145.547 65.7352C148.228 63.1964 151.782 61.7857 155.474 61.7948C159.166 61.804 162.714 63.2324 165.382 65.7844C167.393 67.7821 168.753 70.3408 169.284 73.125C171.903 71.9121 174.824 71.511 177.673 71.9734C180.521 72.4359 183.166 73.7406 185.266 75.7196C187.379 77.7775 188.776 80.4595 189.251 83.3708C189.725 86.2821 189.253 89.2688 187.903 91.8914C190.688 92.3444 193.265 93.6486 195.279 95.625C197.341 97.7152 198.698 100.399 199.158 103.299C199.619 106.199 199.159 109.171 197.845 111.797C200.614 112.236 203.179 113.517 205.193 115.467C206.508 116.774 207.551 118.328 208.263 120.04C208.975 121.752 209.342 123.587 209.342 125.441C209.342 127.295 208.975 129.131 208.263 130.842C207.551 132.554 206.508 134.108 205.193 135.415L190.737 149.871L202.282 163.645C203.179 164.696 203.86 165.915 204.283 167.231C204.706 168.547 204.864 169.933 204.748 171.311C204.631 172.688 204.243 174.028 203.605 175.254C202.967 176.48 202.092 177.568 201.03 178.453L190.265 187.545C188.368 189.124 185.977 189.987 183.508 189.984C181.969 189.987 180.448 189.656 179.049 189.015C177.649 188.374 176.405 187.439 175.401 186.272L163.287 171.816L160.326 173.925C153.875 178.559 146.315 181.406 138.41 182.18C138.322 182.338 138.22 182.488 138.108 182.63L99.506 221.231C98.843 221.872 97.9549 222.226 97.0331 222.218C96.1114 222.21 95.2296 221.84 94.5778 221.188C93.9259 220.537 93.5562 219.655 93.5482 218.733C93.5402 217.811 93.8945 216.923 94.5349 216.26L128.601 182.194C126.033 181.927 123.496 181.421 121.022 180.682C120.131 180.402 119.388 179.78 118.957 178.953C118.525 178.125 118.439 177.16 118.719 176.27C118.999 175.379 119.621 174.637 120.448 174.205C121.276 173.773 122.241 173.687 123.131 173.967C126.804 175.097 130.638 175.612 134.479 175.493C142.322 175.362 149.933 172.816 156.276 168.202L163.898 162.738C162.621 162.095 161.45 161.26 160.425 160.263C158.383 158.192 157.034 155.539 156.563 152.669C156.092 149.799 156.523 146.854 157.795 144.239C155.05 143.717 152.526 142.379 150.553 140.4C149.109 139.004 147.997 137.301 147.302 135.416C146.607 133.532 146.346 131.515 146.538 129.516C146.179 129.516 145.835 129.565 145.462 129.565C143.631 129.576 141.815 129.218 140.124 128.514C138.433 127.81 136.901 126.773 135.619 125.466C135.187 125.01 134.785 124.526 134.416 124.017C133.171 124.383 131.882 124.575 130.584 124.587C128.752 124.588 126.938 124.225 125.248 123.517C123.557 122.81 122.025 121.773 120.74 120.466L113.287 113.013C112.952 112.689 112.684 112.301 112.499 111.872C112.315 111.443 112.218 110.982 112.214 110.515C112.21 110.048 112.299 109.585 112.476 109.153C112.653 108.721 112.914 108.329 113.244 107.999C113.574 107.669 113.966 107.407 114.398 107.231C114.83 107.054 115.293 106.965 115.76 106.969C116.227 106.973 116.688 107.07 117.117 107.254C117.546 107.439 117.934 107.706 118.258 108.042L125.69 115.523C126.803 116.619 128.248 117.313 129.799 117.497C131.35 117.68 132.917 117.342 134.254 116.536C134.755 116.266 135.208 115.917 135.597 115.502C136.625 114.438 137.291 113.077 137.501 111.613C137.71 110.149 137.453 108.656 136.765 107.346C136.51 106.675 136.112 106.068 135.597 105.567L123.138 93.1781C121.142 91.2363 118.466 90.1499 115.681 90.1499C112.896 90.1499 110.221 91.2363 108.225 93.1781L103.303 98.1L98.5357 102.867C94.6302 106.709 91.5909 111.342 89.6215 116.455C87.6522 121.567 86.7983 127.042 87.117 132.511C87.3264 137.328 88.5457 142.047 90.6959 146.363C91.1071 147.202 91.1681 148.17 90.8654 149.054C90.5628 149.938 89.9214 150.666 89.0822 151.077C88.243 151.488 87.2749 151.549 86.3908 151.247C85.5066 150.944 84.7789 150.302 84.3678 149.463C82.91 146.491 81.8078 143.357 81.0842 140.126L21.6631 199.61C21 200.251 20.112 200.605 19.1902 200.597C18.2684 200.589 17.3866 200.219 16.7348 199.567C16.083 198.916 15.7132 198.034 15.7052 197.112C15.6972 196.19 16.0516 195.302 16.692 194.639L16.706 194.667ZM131.231 35.1563C131.585 34.8596 131.878 34.496 132.092 34.0863C132.306 33.6765 132.436 33.2286 132.477 32.7682C132.517 32.3077 132.467 31.8439 132.328 31.4031C132.189 30.9623 131.964 30.5532 131.667 30.1992L113.59 8.65549C113.293 8.301 112.929 8.0086 112.518 7.79504C112.108 7.58148 111.66 7.45096 111.199 7.41096C110.271 7.3379 109.351 7.62778 108.633 8.21956L56.4678 51.9961C55.9135 52.4602 55.5157 53.0838 55.3287 53.7821L45.7381 89.5571C45.5928 90.1022 45.5808 90.6742 45.7032 91.2249C45.8256 91.7757 46.0787 92.2888 46.4412 92.7211L50.8709 97.9946C51.4691 98.7089 52.3264 99.1565 53.2545 99.2391C53.7146 99.2937 54.181 99.2505 54.6233 99.1124C55.0655 98.9743 55.4736 98.7443 55.8209 98.4375L85.4013 73.6172L106.987 55.4766C106.987 55.4766 107.065 55.4766 107.093 55.4203L131.231 35.1563ZM180.759 181.723C181.367 182.431 182.228 182.874 183.158 182.957C184.088 183.04 185.014 182.756 185.737 182.166L196.516 173.067C196.867 172.777 197.156 172.419 197.367 172.015C197.577 171.611 197.705 171.169 197.743 170.715C197.78 170.261 197.726 169.804 197.584 169.372C197.443 168.939 197.216 168.538 196.917 168.195L185.744 154.891L180.372 160.263C178.846 161.773 176.976 162.89 174.923 163.519L169.031 167.738L180.759 181.723ZM165.389 155.292C166.276 156.195 167.396 156.835 168.625 157.141C169.853 157.448 171.142 157.409 172.35 157.029C173.504 156.743 174.555 156.141 175.387 155.292L200.208 130.472C200.87 129.818 201.396 129.039 201.754 128.18C202.113 127.321 202.298 126.4 202.298 125.469C202.298 124.538 202.113 123.617 201.754 122.758C201.396 121.899 200.87 121.12 200.208 120.466C199.554 119.82 198.777 119.311 197.923 118.969C197.069 118.627 196.156 118.46 195.237 118.477C193.51 118.467 191.841 119.093 190.547 120.234L165.417 145.336C164.107 146.66 163.371 148.447 163.367 150.31C163.363 152.173 164.085 153.962 165.389 155.292ZM153.513 129.635C153.348 130.683 153.441 131.755 153.784 132.758C154.127 133.762 154.71 134.666 155.482 135.394C156.342 136.276 157.425 136.909 158.616 137.225C159.807 137.541 161.062 137.527 162.246 137.187C162.369 137.168 162.494 137.156 162.619 137.152C162.988 137.093 163.362 137.069 163.737 137.081L169.776 131.055L169.84 130.957L190.279 110.566C191.586 109.24 192.319 107.453 192.319 105.592C192.319 103.73 191.586 101.943 190.279 100.617C188.937 99.3453 187.158 98.6364 185.308 98.6364C183.459 98.6364 181.68 99.3453 180.337 100.617L161.212 119.679L155.524 125.367C154.779 126.12 153.948 126.783 153.049 127.343C153.466 128.03 153.63 128.84 153.513 129.635ZM140.625 120.523C141.354 121.253 142.238 121.809 143.212 122.15C144.186 122.491 145.224 122.608 146.25 122.491C147.877 122.398 149.406 121.68 150.518 120.488L180.323 90.7031C180.992 90.0478 181.523 89.2655 181.885 88.4022C182.247 87.539 182.433 86.612 182.433 85.6758C182.426 84.7563 182.237 83.8472 181.874 83.0021C181.512 82.1569 180.985 81.3925 180.323 80.7539C179.685 80.0987 178.918 79.5815 178.072 79.2344C177.225 78.8873 176.316 78.7177 175.401 78.736C174.476 78.724 173.557 78.9011 172.702 79.2566C171.848 79.612 171.074 80.1383 170.43 80.8031L144.042 107.191C144.697 109.522 144.727 111.984 144.127 114.33C143.527 116.675 142.319 118.821 140.625 120.551V120.523ZM140.59 100.589L160.446 80.6696C161.1 80.028 161.62 79.2621 161.973 78.4168C162.327 77.5715 162.508 76.664 162.506 75.7477C162.506 74.8127 162.319 73.8871 161.957 73.025C161.595 72.163 161.064 71.3819 160.397 70.7274C159.053 69.457 157.274 68.7492 155.426 68.7492C153.577 68.7492 151.798 69.457 150.454 70.7274L130.619 90.7031L140.59 100.589ZM102.747 88.7414L103.254 88.2352C106.162 85.4415 109.922 83.7025 113.934 83.296C117.946 82.8894 121.979 83.8387 125.388 85.9922L126.794 84.586L108.822 63.1547L92.6506 76.7532L102.747 88.7414Z" fill="black"/>
</svg>
