<svg width="188" height="225" viewBox="0 0 188 225" fill="none" xmlns="http://www.w3.org/2000/svg">
<path fill-rule="evenodd" clip-rule="evenodd" d="M13.7917 0C10.1388 0.0157887 6.64 1.47004 4.05698 4.04619C1.47396 6.62234 0.0158308 10.1118 0 13.755V53.76C0.015857 57.4018 1.47447 60.8897 4.05791 63.4635C6.64135 66.0372 10.1402 67.4882 13.7917 67.5H144.128C147.78 67.4882 151.279 66.0372 153.862 63.4635C156.446 60.8897 157.904 57.4018 157.92 53.76V45H161.68C162.304 45 163.372 45.4425 164.192 46.26C164.89 46.9168 165.332 47.799 165.44 48.75V78.75C165.332 79.7054 164.89 80.5924 164.192 81.255C163.528 81.9522 162.638 82.3932 161.68 82.5H78.96C73.9442 82.5 69.372 84.885 65.9579 88.2825C62.5514 91.6875 60.16 96.2475 60.16 101.25V135C51.888 135 45.12 141.75 45.12 150V210C45.12 218.25 51.888 225 60.16 225H82.72C90.992 225 97.76 218.25 97.76 210V150C97.76 141.75 90.992 135 82.72 135V108.75C82.72 108.128 83.1486 107.063 83.9683 106.245C84.6323 105.548 85.5218 105.107 86.48 105H169.2C174.216 105 178.788 102.615 182.202 99.2175C185.609 95.8125 188 91.2525 188 86.25V41.25C188 36.2475 185.609 31.6875 182.202 28.2825C178.788 24.885 174.216 22.5 169.2 22.5H157.92V13.755C157.904 10.1118 156.446 6.62234 153.863 4.04619C151.28 1.47004 147.781 0.0157887 144.128 0H13.7917ZM13.7917 7.5H144.128C147.663 7.5 150.4 10.23 150.4 13.755V53.76C150.412 54.5841 150.258 55.4022 149.947 56.1658C149.636 56.9293 149.174 57.6228 148.589 58.2048C148.004 58.7869 147.308 59.2458 146.542 59.5542C145.775 59.8625 144.955 60.0142 144.128 60H13.7917C12.9654 60.0142 12.1448 59.8625 11.3784 59.5542C10.6121 59.2458 9.9157 58.7869 9.33066 58.2048C8.74563 57.6228 8.28387 56.9293 7.97282 56.1658C7.66177 55.4022 7.50778 54.5841 7.52 53.76V13.755C7.52 10.23 10.2573 7.5 13.7917 7.5ZM157.92 30H169.2C171.704 30 174.652 31.365 176.878 33.5925C179.111 35.8125 180.48 38.7525 180.48 41.25V86.25C180.48 88.7475 179.111 91.6875 176.878 93.9075C174.652 96.135 171.704 97.5 169.2 97.5H86.48C83.3442 97.5 80.652 98.9475 78.6517 100.942C76.6514 102.937 75.2 105.623 75.2 108.75V135H67.68V101.25C67.68 98.7525 69.0486 95.8125 71.2821 93.5925C73.508 91.365 76.4558 90 78.96 90H161.68C164.808 90 167.508 88.5525 169.508 86.5575C171.509 84.5625 172.96 81.8775 172.96 78.75V48.75C172.96 45.6225 171.509 42.9375 169.508 40.9425C167.508 38.9475 164.816 37.5 161.68 37.5H157.92V30ZM60.16 142.5H82.72C86.9538 142.5 90.24 145.777 90.24 150V210C90.24 214.223 86.9538 217.5 82.72 217.5H60.16C55.9262 217.5 52.64 214.223 52.64 210V150C52.64 145.777 55.9262 142.5 60.16 142.5Z" fill="black"/>
</svg>
